<svg xmlns="http://www.w3.org/2000/svg" xmlns:xlink="http://www.w3.org/1999/xlink" width="124.831" height="86.412" viewBox="0 0 124.831 86.412">
  <defs>
    <clipPath id="clip-path">
      <path id="Path_498" data-name="Path 498" d="M838,119.387h75.227v85.194H838Zm0,0" transform="translate(-838 -119.387)"/>
    </clipPath>
  </defs>
  <g id="Group_352" data-name="Group 352" transform="translate(-837.837 -119.387)">
    <g id="Group_311" data-name="Group 311" transform="translate(838 119.387)" clip-path="url(#clip-path)">
      <path id="Path_497" data-name="Path 497" d="M905.3,197.273a19.059,19.059,0,0,0,1.864-8.71,18.191,18.191,0,0,1-2.554,7.07c-.244-3.771-3.689-7.608-2.121-11.458a21.232,21.232,0,0,1-5.551-3.275c4-.665,5.39-3.136,5.39-3.136a9.159,9.159,0,0,1-6.169,2.634c-3.541,1.86-10.055.476-11.525-.626-1.244-.935-2.4-.74-2.784-1.422-2.645-4.756.6-8.831,2.153-12.051,1.068-2.2,1.71-4.592,2.773-5.5.824-.706,2.508-2.437,3.334-2.216,1.214.323,4.223,1.906,3.232,3.234-1.774,2.381-.39,2.113-4.109,2.235-.742.024-1.6-.013-2.263,1.92a4.8,4.8,0,0,1,1.107-1.163,2.987,2.987,0,0,0-.159,1.576c1.433,5.335-.965,9.17-2.9,9.886,0,0,1.785-.165,3.016-2.666a10.743,10.743,0,0,1,9.854-1.463,9.6,9.6,0,0,1-5.034,2.717c2.55.011,4.011-1.454,5.615-2.5A9.656,9.656,0,0,1,905.5,171l.015-.024a9.927,9.927,0,0,1,5.877,3.537,9.7,9.7,0,0,0-5.236-4.5c2-3.138,2.012-3.9,2.012-3.9-1.321-1.9-2.526-1.233-3.569-1.971-.363-.26-.118-.86-.032-1.485a4.8,4.8,0,0,0-.086-.845c-.01-.616.275-.858.1-1.055-.232-.257-1.255.174-1.293-.5-.092-1.613,1.482-2.117,1.525-5.317a5.4,5.4,0,0,1,.935-3.486,7.812,7.812,0,0,1,2.853-2.106c-.543-1.134.425-3.312.2-3.929,3.775-5.645,5.965-17.58,1.771-22.058a15.217,15.217,0,0,0-9.974-3.972,15.64,15.64,0,0,0-9.972,3.972c-4.107,4.1-3.181,17.713,3.151,23.7a16.536,16.536,0,0,1-1.561,3.273c-.174-.055-.354-.111-.541-.165a20.688,20.688,0,0,1,5.036,7.93s-2.346-6.188-8.091-8.608c-3.194-1.343-7.864-.356-12.447,2.04-3.606,1.883-6.991,4.687-12.385,4.15a20.384,20.384,0,0,0,11.2-4.736c-3.134-1.4-12.033-4.425-21.143,1.1-3.112,5.041-6.92,5.025-6.92,5.025,4.245-1.12,10.092-8.751,8.144-20.325a6.325,6.325,0,0,1,.656-3.306,10.29,10.29,0,0,0-2.578,2.238c1.8-3.951,3.6-3.7,5.176-3.6,7.9.493,4.912.783,9.146-3.9,2.366-2.613-3.681-6.568-6.18-7.5-1.7-.633-5.617,2.688-7.5,4.011-2.433,1.707-4.275,6.628-6.979,11.074-3.951,6.5-11.632,14.463-7,25.057.665,1.523,3.16,1.348,5.6,3.576,2.878,2.627,16.383,6.877,24.253,3.659,0,0,8.026.755,13.582-4.326,0,0-3.445,4.951-12.035,5.545,2.767,5.39,7.316,8.614,11.042,13.7,1.188,1.62,3.129,15.026.926,15.894-.311,1.038-.616,2.057-.864,3.048a63.723,63.723,0,0,0,18.283,2.664c.517,0,1.032-.009,1.545-.021,1.051-2.874,2.543-6,3.157-7.287" transform="translate(-838.167 -119.387)" fill="#231f20"/>
    </g>
    <g id="Group_351" data-name="Group 351" transform="translate(837.837 120.605)" clip-path="url(#clip-path)">
      <path id="Path_766" data-name="Path 766" d="M905.3,197.273a19.059,19.059,0,0,0,1.864-8.71,18.191,18.191,0,0,1-2.554,7.07c-.244-3.771-3.689-7.608-2.121-11.458a21.232,21.232,0,0,1-5.551-3.275c4-.665,5.39-3.136,5.39-3.136a9.159,9.159,0,0,1-6.169,2.634c-3.541,1.86-10.055.476-11.525-.626-1.244-.935-2.4-.74-2.784-1.422-2.645-4.756.6-8.831,2.153-12.051,1.068-2.2,1.71-4.592,2.773-5.5.824-.706,2.508-2.437,3.334-2.216,1.214.323,4.223,1.906,3.232,3.234-1.774,2.381-.39,2.113-4.109,2.235-.742.024-1.6-.013-2.263,1.92a4.8,4.8,0,0,1,1.107-1.163,2.987,2.987,0,0,0-.159,1.576c1.433,5.335-.965,9.17-2.9,9.886,0,0,1.785-.165,3.016-2.666a10.743,10.743,0,0,1,9.854-1.463,9.6,9.6,0,0,1-5.034,2.717c2.55.011,4.011-1.454,5.615-2.5A9.656,9.656,0,0,1,905.5,171l.015-.024a9.927,9.927,0,0,1,5.877,3.537,9.7,9.7,0,0,0-5.236-4.5c2-3.138,2.012-3.9,2.012-3.9-1.321-1.9-2.526-1.233-3.569-1.971-.363-.26-.118-.86-.032-1.485a4.8,4.8,0,0,0-.086-.845c-.01-.616.275-.858.1-1.055-.232-.257-1.255.174-1.293-.5-.092-1.613,1.482-2.117,1.525-5.317a5.4,5.4,0,0,1,.935-3.486,7.812,7.812,0,0,1,2.853-2.106c-.543-1.134.425-3.312.2-3.929,3.775-5.645,5.965-17.58,1.771-22.058a15.217,15.217,0,0,0-9.974-3.972,15.64,15.64,0,0,0-9.972,3.972c-4.107,4.1-3.181,17.713,3.151,23.7a16.536,16.536,0,0,1-1.561,3.273c-.174-.055-.354-.111-.541-.165a20.688,20.688,0,0,1,5.036,7.93s-2.346-6.188-8.091-8.608c-3.194-1.343-7.864-.356-12.447,2.04-3.606,1.883-6.991,4.687-12.385,4.15a20.384,20.384,0,0,0,11.2-4.736c-3.134-1.4-12.033-4.425-21.143,1.1-3.112,5.041-6.92,5.025-6.92,5.025,4.245-1.12,10.092-8.751,8.144-20.325a6.325,6.325,0,0,1,.656-3.306,10.29,10.29,0,0,0-2.578,2.238c1.8-3.951,3.6-3.7,5.176-3.6,7.9.493,4.912.783,9.146-3.9,2.366-2.613-3.681-6.568-6.18-7.5-1.7-.633-5.617,2.688-7.5,4.011-2.433,1.707-4.275,6.628-6.979,11.074-3.951,6.5-11.632,14.463-7,25.057.665,1.523,3.16,1.348,5.6,3.576,2.878,2.627,16.383,6.877,24.253,3.659,0,0,8.026.755,13.582-4.326,0,0-3.445,4.951-12.035,5.545,2.767,5.39,7.316,8.614,11.042,13.7,1.188,1.62,3.129,15.026.926,15.894-.311,1.038-.616,2.057-.864,3.048a63.723,63.723,0,0,0,18.283,2.664c.517,0,1.032-.009,1.545-.021,1.051-2.874,2.543-6,3.157-7.287" transform="translate(-838.167 -119.387)" fill="#231f20"/>
    </g>
    <path id="Path_499" data-name="Path 499" d="M1015.867,136.77c-2.707-4.447-4.547-9.367-6.979-11.074-1.889-1.323-5.8-4.644-7.506-4.011-2.5.931-8.544,4.886-6.177,7.5,4.234,4.678,1.252,4.388,9.148,3.9,1.57-.1,3.372-.348,5.172,3.6a10.245,10.245,0,0,0-2.575-2.238,6.333,6.333,0,0,1,.653,3.306c-1.949,11.574,3.9,19.205,8.143,20.325,0,0-3.805.015-6.919-5.025-9.11-5.529-18.01-2.5-21.144-1.1a20.387,20.387,0,0,0,11.2,4.736c-5.4.536-8.78-2.267-12.385-4.15-4.281-2.239-8.563-3.012-11.8-2.267,7.334,1.99,2.531,9.545,4.215,14.643.549,1.662,2.185,2.58,5.122,5.208a12.129,12.129,0,0,1,6.272,1.5c1.6-1.547,2.7-2.557,2.7-2.557,7.874,3.218,21.371-1.032,24.254-3.659,2.444-2.228,4.942-2.053,5.606-3.576,4.629-10.593-3.053-18.56-7-25.057" transform="translate(-61.639 -1)" fill="#231f20"/>
  </g>
</svg>
