<svg xmlns="http://www.w3.org/2000/svg" xmlns:xlink="http://www.w3.org/1999/xlink" width="120.037" height="79.394" viewBox="0 0 120.037 79.394">
  <defs>
    <clipPath id="clip-path">
      <path id="Path_548" data-name="Path 548" d="M741,406.836h4.624v38.32H741Zm0,0" transform="translate(-741 -406.836)"/>
    </clipPath>
    <clipPath id="clip-path-2">
      <path id="Path_554" data-name="Path 554" d="M701,575h38.672v8.707H701Zm0,0" transform="translate(-701 -575)"/>
    </clipPath>
    <clipPath id="clip-path-3">
      <path id="Path_557" data-name="Path 557" d="M906,406.836h4.2v38.32H906Zm0,0" transform="translate(-906 -406.836)"/>
    </clipPath>
    <clipPath id="clip-path-4">
      <path id="Path_563" data-name="Path 563" d="M865,575h38.671v8.707H865Zm0,0" transform="translate(-865 -575)"/>
    </clipPath>
    <clipPath id="clip-path-5">
      <path id="Path_566" data-name="Path 566" d="M689.68,429H809.717v8.407H689.68Zm0,0" transform="translate(-689.68 -429)"/>
    </clipPath>
  </defs>
  <g id="Devices_Needing_Maintenance" data-name="Devices Needing Maintenance" transform="translate(-689.68 -406.836)">
    <path id="Path_544" data-name="Path 544" d="M819.226,508.807a2.375,2.375,0,0,1-2.373,2.377H751.748a2.377,2.377,0,0,1,0-4.755h65.105a2.375,2.375,0,0,1,2.373,2.377" transform="translate(-34.603 -57.73)" fill="#fff"/>
    <path id="Path_545" data-name="Path 545" d="M818.558,508.137h-.486a1.886,1.886,0,0,1-1.887,1.892H751.08a1.892,1.892,0,0,1,0-3.783h65.105a1.889,1.889,0,0,1,1.887,1.892h.972a2.861,2.861,0,0,0-2.859-2.864H751.08a2.864,2.864,0,0,0,0,5.727h65.105a2.86,2.86,0,0,0,2.859-2.863h-.486" transform="translate(-33.935 -57.06)" fill="#040606"/>
    <path id="Path_546" data-name="Path 546" d="M746.17,445.069h-3.037V408.105h3.037v36.964" transform="translate(-30.984 -0.736)" fill="#fff"/>
    <g id="Group_322" data-name="Group 322" transform="translate(711.252 406.836)" clip-path="url(#clip-path)">
      <path id="Path_547" data-name="Path 547" d="M745.5,444.4v-.486h-2.553V407.919h2.067V444.4h.486v0h.486V407.433a.482.482,0,0,0-.143-.343.477.477,0,0,0-.343-.145h-3.037a.49.49,0,0,0-.486.488V444.4a.485.485,0,0,0,.486.486H745.5a.485.485,0,0,0,.486-.486H745.5" transform="translate(-741.566 -406.899)" fill="#040606"/>
    </g>
    <path id="Path_549" data-name="Path 549" d="M745.1,536.074H734.906l2.6-40.031h4.747l2.842,40.031" transform="translate(-26.216 -51.709)" fill="#fff"/>
    <path id="Path_550" data-name="Path 550" d="M744.43,535.4v-.486h-9.672l2.538-39.059h3.842l2.81,39.581.482-.036v0l.485-.033-2.842-40.033a.485.485,0,0,0-.484-.451h-4.747a.485.485,0,0,0-.485.455l-2.6,40.031a.486.486,0,0,0,.483.519H744.43a.484.484,0,0,0,.485-.521l-.485.033" transform="translate(-25.548 -51.039)" fill="#040606"/>
    <path id="Path_551" data-name="Path 551" d="M745.845,448.541H741.1V447.1h4.747v1.443" transform="translate(-29.805 -23.338)" fill="#040606"/>
    <path id="Path_552" data-name="Path 552" d="M739.712,581.92a2.376,2.376,0,0,1-2.372,2.379H704.966a2.376,2.376,0,0,1-2.372-2.379c0-1.314,14.874-4.924,16.185-4.924h5.405c1.312,0,15.528,3.611,15.528,4.924" transform="translate(-7.486 -98.634)" fill="#fff"/>
    <g id="Group_323" data-name="Group 323" transform="translate(694.438 477.523)" clip-path="url(#clip-path-2)">
      <path id="Path_553" data-name="Path 553" d="M739.042,581.25h-.484a1.892,1.892,0,0,1-1.888,1.893H704.3a1.892,1.892,0,0,1-1.888-1.893h-.234l.2.128a.246.246,0,0,0,.031-.128h-.234l.2.128-.018-.013.018.015v0l-.018-.013.018.015a.968.968,0,0,1,.217-.171,7.9,7.9,0,0,1,1.238-.593c.965-.389,2.289-.826,3.742-1.258,2.177-.649,4.645-1.289,6.662-1.765,1.006-.24,1.9-.437,2.589-.573.345-.069.636-.121.859-.158a4.251,4.251,0,0,1,.425-.052h5.405c.031,0,.154.012.319.036.625.1,1.9.373,3.435.751,2.305.57,5.211,1.367,7.53,2.135a28.047,28.047,0,0,1,2.868,1.087,4.824,4.824,0,0,1,.779.43.788.788,0,0,1,.138.12l0,0,.033-.025-.036.02,0,.005.033-.025-.036.02.21-.116h-.235a.234.234,0,0,0,.025.116l.21-.116h.734a.753.753,0,0,0-.108-.379,1.492,1.492,0,0,0-.435-.432,7.527,7.527,0,0,0-1.314-.685c-.96-.41-2.245-.855-3.655-1.3-2.119-.662-4.519-1.312-6.493-1.8-.987-.243-1.867-.446-2.553-.589-.345-.071-.639-.128-.879-.168a3.7,3.7,0,0,0-.576-.062h-5.405a3.58,3.58,0,0,0-.468.044c-.711.107-2.036.386-3.653.768-2.422.573-5.471,1.376-7.931,2.153a31.284,31.284,0,0,0-3.107,1.128,6.077,6.077,0,0,0-.979.522,1.734,1.734,0,0,0-.337.3.86.86,0,0,0-.131.207.686.686,0,0,0-.066.29,2.861,2.861,0,0,0,2.858,2.865h32.373a2.861,2.861,0,0,0,2.857-2.865h-.485" transform="translate(-701.254 -575.487)" fill="#040606"/>
    </g>
    <path id="Path_555" data-name="Path 555" d="M910.38,445.069h-3.036V408.105h3.036v36.964" transform="translate(-126.17 -0.736)" fill="#fff"/>
    <g id="Group_324" data-name="Group 324" transform="translate(780.609 406.836)" clip-path="url(#clip-path-3)">
      <path id="Path_556" data-name="Path 556" d="M909.71,444.4v-.486h-2.553V407.919h2.069V444.4h.484v0h.486V407.433a.482.482,0,0,0-.143-.343.477.477,0,0,0-.344-.145h-3.036a.487.487,0,0,0-.486.488V444.4a.482.482,0,0,0,.486.486h3.036a.485.485,0,0,0,.486-.486h-.486" transform="translate(-906.109 -406.899)" fill="#040606"/>
    </g>
    <path id="Path_558" data-name="Path 558" d="M909.66,536.074H899.629l2.388-40.031h4.747l2.9,40.031" transform="translate(-121.698 -51.709)" fill="#fff"/>
    <path id="Path_559" data-name="Path 559" d="M908.991,535.4v-.486h-9.515l2.329-39.059h3.839l2.864,39.581.484-.036v0l.485-.034-2.9-40.031a.483.483,0,0,0-.483-.451h-4.747a.485.485,0,0,0-.485.456l-2.387,40.033a.492.492,0,0,0,.133.363.482.482,0,0,0,.351.153h10.031a.483.483,0,0,0,.356-.156.491.491,0,0,0,.128-.366l-.485.034" transform="translate(-121.03 -51.039)" fill="#040606"/>
    <path id="Path_560" data-name="Path 560" d="M910.056,448.541h-4.747V447.1h4.747v1.443" transform="translate(-124.991 -23.338)" fill="#040606"/>
    <path id="Path_561" data-name="Path 561" d="M903.921,581.92a2.377,2.377,0,0,1-2.374,2.379H869.173a2.376,2.376,0,0,1-2.372-2.379c0-1.314,14.875-4.924,16.187-4.924h4.747c1.312,0,16.186,3.611,16.186,4.924" transform="translate(-102.669 -98.634)" fill="#fff"/>
    <g id="Group_325" data-name="Group 325" transform="translate(763.375 477.523)" clip-path="url(#clip-path-4)">
      <path id="Path_562" data-name="Path 562" d="M903.252,581.25h-.486a1.9,1.9,0,0,1-.553,1.338,1.877,1.877,0,0,1-1.335.555H868.505a1.875,1.875,0,0,1-1.335-.555,1.9,1.9,0,0,1-.554-1.338h-.234l.205.128a.254.254,0,0,0,.029-.128h-.234l.205.128-.021-.013.02.015,0,0-.021-.013.02.015a1.014,1.014,0,0,1,.217-.171,7.9,7.9,0,0,1,1.238-.593c.965-.389,2.29-.826,3.742-1.258,2.177-.649,4.647-1.289,6.662-1.765,1.01-.24,1.9-.437,2.589-.573.345-.069.635-.121.859-.158a4.2,4.2,0,0,1,.427-.052h4.747a3.192,3.192,0,0,1,.327.038c.645.1,1.973.373,3.571.75,2.4.57,5.438,1.368,7.862,2.136a31.033,31.033,0,0,1,3.005,1.087,5.334,5.334,0,0,1,.818.432.787.787,0,0,1,.146.123l0,0,.038-.028-.041.025,0,0,.038-.028-.041.025.215-.127h-.243a.264.264,0,0,0,.028.127l.215-.127h.726a.723.723,0,0,0-.115-.386,1.49,1.49,0,0,0-.451-.432,7.937,7.937,0,0,0-1.37-.68c-1-.41-2.343-.854-3.818-1.3-2.21-.66-4.715-1.312-6.771-1.8-1.028-.243-1.942-.446-2.654-.589-.356-.071-.662-.126-.908-.166a3.87,3.87,0,0,0-.583-.062h-4.747a3.6,3.6,0,0,0-.47.044c-.711.107-2.036.386-3.653.768-2.42.573-5.471,1.376-7.931,2.153a31.6,31.6,0,0,0-3.107,1.128,6.077,6.077,0,0,0-.979.522,1.738,1.738,0,0,0-.337.3.862.862,0,0,0-.131.207.692.692,0,0,0-.064.29,2.861,2.861,0,0,0,2.857,2.865h32.373a2.861,2.861,0,0,0,2.857-2.865h-.483" transform="translate(-865.375 -575.487)" fill="#040606"/>
    </g>
    <path id="Path_564" data-name="Path 564" d="M784.922,434.94v0l-.159,0c-8.74,0-8.74-4.42-17.479-4.42s-8.739,4.42-17.479,4.42h-.059c-8.738,0-8.738-4.42-17.477-4.42s-8.74,4.42-17.48,4.42l-.159,0v0H690.824v2.714h25.584V437.6c7.159-.507,7.7-4.363,15.861-4.363,8.74,0,8.74,4.419,17.479,4.419h.056c8.739,0,8.739-4.419,17.477-4.419,8.589,0,8.739,4.268,17.034,4.414v.005H809.9V434.94H784.922" transform="translate(-0.663 -13.729)" fill="#fff"/>
    <g id="Group_326" data-name="Group 326" transform="translate(689.68 416.152)" clip-path="url(#clip-path-5)">
      <path id="Path_565" data-name="Path 565" d="M784.254,434.269h.484v0a.486.486,0,0,0-.143-.345.477.477,0,0,0-.345-.141l-.156,0a17.04,17.04,0,0,1-5.049-.67,17.408,17.408,0,0,1-2.654-1.079,32.167,32.167,0,0,0-3.931-1.793,17.5,17.5,0,0,0-5.845-.879,18,18,0,0,0-5.33.711,18.189,18.189,0,0,0-2.8,1.136,31.5,31.5,0,0,1-3.818,1.747,16.524,16.524,0,0,1-5.532.826v.486l0-.486h-.069l.005.486v-.486a17.028,17.028,0,0,1-5.047-.67,17.423,17.423,0,0,1-2.655-1.079,32.02,32.02,0,0,0-3.929-1.793,17.5,17.5,0,0,0-5.845-.879,17.988,17.988,0,0,0-5.33.711,18.212,18.212,0,0,0-2.8,1.136,31.654,31.654,0,0,1-3.819,1.747,16.516,16.516,0,0,1-5.532.826l-.154,0a.48.48,0,0,0-.346.141.486.486,0,0,0-.143.345v0h.484v-.486H690.156a.482.482,0,0,0-.484.486v2.714a.487.487,0,0,0,.484.488H715.74a.485.485,0,0,0,.345-.144.478.478,0,0,0,.141-.343v-.056h-.486l.036.486a16.058,16.058,0,0,0,4.481-.925,23.251,23.251,0,0,0,2.489-1.113,24.167,24.167,0,0,1,3.608-1.594,16.856,16.856,0,0,1,5.247-.732,15.672,15.672,0,0,1,7.7,1.75,32.666,32.666,0,0,0,3.931,1.792,17.491,17.491,0,0,0,5.845.88h.033l-.005-.488,0,.488h.033a17.954,17.954,0,0,0,5.33-.712,18.351,18.351,0,0,0,2.8-1.135,31.389,31.389,0,0,1,3.818-1.747,16.54,16.54,0,0,1,5.53-.828,17.094,17.094,0,0,1,4.98.65,16.834,16.834,0,0,1,2.624,1.051,37.118,37.118,0,0,0,3.832,1.772,16.943,16.943,0,0,0,5.589.942l.008-.486h-.486v.005a.49.49,0,0,0,.486.488h25.585a.487.487,0,0,0,.485-.488v-2.714a.482.482,0,0,0-.485-.486H784.254v.486h0v.486h24.491V436.5h-25.1v.486h.486v-.005a.487.487,0,0,0-.478-.486,16.373,16.373,0,0,1-4.813-.729,18.165,18.165,0,0,1-2.58-1.077,29.825,29.825,0,0,0-3.881-1.757,17.545,17.545,0,0,0-5.768-.851,18.007,18.007,0,0,0-5.328.71,18.455,18.455,0,0,0-2.8,1.136,31.509,31.509,0,0,1-3.818,1.747,16.525,16.525,0,0,1-5.532.826v.486l0-.486h-.066l.005.486V436.5a16.966,16.966,0,0,1-5.048-.67,17.421,17.421,0,0,1-2.655-1.077,32.191,32.191,0,0,0-3.929-1.795,17.478,17.478,0,0,0-5.847-.877,18.225,18.225,0,0,0-5.046.627,28.869,28.869,0,0,0-5.011,2.179,15.053,15.053,0,0,1-5.839,1.558.486.486,0,0,0-.45.484v.056h.485V436.5h-25.1v-1.742h23.321a.484.484,0,0,0,.486-.486v0h-.486l0,.488h.161a18,18,0,0,0,5.33-.711,18.3,18.3,0,0,0,2.8-1.136,31.819,31.819,0,0,1,3.818-1.747,16.567,16.567,0,0,1,5.533-.826,15.7,15.7,0,0,1,7.7,1.749,32.3,32.3,0,0,0,3.931,1.793,17.5,17.5,0,0,0,5.845.878h.034l-.005-.486,0,.486h.034a18,18,0,0,0,5.329-.711,18.194,18.194,0,0,0,2.8-1.136,32.025,32.025,0,0,1,3.819-1.747,16.555,16.555,0,0,1,5.532-.826,15.725,15.725,0,0,1,7.7,1.749,31.965,31.965,0,0,0,3.931,1.793,17.494,17.494,0,0,0,5.846.878h.162l0-.488h-.486v0a.487.487,0,0,0,.486.486v-.486" transform="translate(-689.675 -429.21)" fill="#040606"/>
    </g>
    <path id="Path_567" data-name="Path 567" d="M818.684,501.951c0,1.794-1.955,3.248-4.366,3.248H769.292c-2.412,0-4.366-1.453-4.366-3.248s1.954-3.248,4.366-3.248h45.026c2.41,0,4.366,1.455,4.366,3.248" transform="translate(-43.617 -53.251)" fill="#040606"/>
    <path id="Path_568" data-name="Path 568" d="M856.973,430.992a3.132,3.132,0,0,0,3.128,3.136h7.118a3.135,3.135,0,0,0,0-6.269H860.1a3.131,3.131,0,0,0-3.128,3.133" transform="translate(-96.973 -12.186)" fill="#040606"/>
    <path id="Path_569" data-name="Path 569" d="M773.586,430.992a3.131,3.131,0,0,0,3.126,3.136h7.12a3.135,3.135,0,0,0,0-6.269h-7.12a3.131,3.131,0,0,0-3.126,3.133" transform="translate(-48.637 -12.186)" fill="#040606"/>
    <path id="Path_570" data-name="Path 570" d="M926.762,438.015a2.993,2.993,0,1,0,5.986,0V413.371a2.993,2.993,0,1,0-5.986,0v24.644" transform="translate(-137.426 -2.049)" fill="#040606"/>
    <path id="Path_571" data-name="Path 571" d="M941,439.878c0,1.307,1.34,2.364,2.992,2.364s2.993-1.058,2.993-2.364V420.45c0-1.307-1.34-2.364-2.993-2.364S941,419.144,941,420.45v19.428" transform="translate(-145.682 -6.521)" fill="#040606"/>
    <path id="Path_572" data-name="Path 572" d="M728.551,438.015a2.993,2.993,0,1,1-5.985,0V413.371a2.993,2.993,0,1,1,5.985,0v24.644" transform="translate(-19.063 -2.049)" fill="#040606"/>
    <path id="Path_573" data-name="Path 573" d="M714.31,439.878c0,1.307-1.341,2.364-2.993,2.364s-2.993-1.058-2.993-2.364V420.45c0-1.307,1.34-2.364,2.993-2.364s2.993,1.058,2.993,2.364v19.428" transform="translate(-10.807 -6.521)" fill="#040606"/>
  </g>
</svg>
