<svg xmlns="http://www.w3.org/2000/svg" xmlns:xlink="http://www.w3.org/1999/xlink" width="74.277" height="79.518" viewBox="0 0 74.277 79.518">
  <defs>
    <clipPath id="clip-path">
      <path id="Path_486" data-name="Path 486" d="M483,93h73.63v79.518H483Zm0,0" transform="translate(-483 -93)"/>
    </clipPath>
    <clipPath id="clip-path-2">
      <path id="Path_490" data-name="Path 490" d="M687,130h6.448v2.256H687Zm0,0" transform="translate(-687 -130)"/>
    </clipPath>
  </defs>
  <g id="Pending_Payments" data-name="Pending Payments" transform="translate(-483 -93)">
    <path id="Path_483" data-name="Path 483" d="M610.909,275.268l15.481.229a8.974,8.974,0,0,0,8.709-9.2v-2.612a.906.906,0,0,0-1.812,0V266.3a7.162,7.162,0,0,1-6.884,7.387l-15.467-.229A.906.906,0,0,0,610.909,275.268Zm0,0" transform="translate(-84 -114.767)"/>
    <path id="Path_484" data-name="Path 484" d="M643.39,220.594A3.507,3.507,0,1,0,646.9,224.1,3.512,3.512,0,0,0,643.39,220.594Zm0,5.2a1.7,1.7,0,1,1,1.7-1.7A1.7,1.7,0,0,1,643.39,225.8Zm0,0" transform="translate(-104.706 -86.304)"/>
    <g id="Group_309" data-name="Group 309" transform="translate(483 93)" clip-path="url(#clip-path)">
      <path id="Path_485" data-name="Path 485" d="M520.98,94.128c-19.189,21.538-17.957,20.025-18.1,20.363H487.717a2.6,2.6,0,0,1-1.653-4.606,7.449,7.449,0,0,1,4.2-1.193l14.687-.008a.909.909,0,1,0,0-1.818l-14.687.008a9.368,9.368,0,0,0-5.3,1.538,4.056,4.056,0,0,0-1.7,3.111.9.9,0,0,0-.023.119v39.92a9.279,9.279,0,0,0,4.084,7.746.89.89,0,0,0,.884.076,16.787,16.787,0,0,0,33.176-3.15,16.161,16.161,0,0,0-5.737-12.3s0,0,0,0a.991.991,0,0,0-1.317.045l-2.587,2.712a.893.893,0,0,0,.048,1.284.948.948,0,0,0,1.318-.046l1.94-2.033a14.326,14.326,0,0,1,4.438,9.695H516.5a.909.909,0,1,0,0,1.818h2.967a14.263,14.263,0,0,1-3.63,8.368l-1.512-1.431a.949.949,0,0,0-1.319.019.893.893,0,0,0,.019,1.285l1.5,1.418a14.993,14.993,0,0,1-8.942,3.643l-.016-2.35a.92.92,0,0,0-.931-.9h-.007a.922.922,0,0,0-.926.915l.016,2.339a14.99,14.99,0,0,1-9.239-3.9l1.893-1.917a.892.892,0,0,0-.025-1.285.95.95,0,0,0-1.317.023l-1.84,1.863A14.24,14.24,0,0,1,489.8,156.9l2.227.036a.909.909,0,1,0,.016-1.818l-2.218-.036a14.248,14.248,0,0,1,3.431-8.169l1.668,1.58a.936.936,0,0,0,.649.257.908.908,0,0,0,.649-1.562l-1.673-1.585a15,15,0,0,1,9.8-3.868l-1.1,1.174a.908.908,0,0,0,.688,1.524.941.941,0,0,0,.688-.3l2.772-2.956a.892.892,0,0,0-.033-1.261l-2.773-2.662a.948.948,0,0,0-1.319.009.894.894,0,0,0,.01,1.286l1.412,1.356c-.014,0-.026-.008-.04-.008A16.562,16.562,0,0,0,487.9,156.234c0,.422.032.837.065,1.25a7.489,7.489,0,0,1-2.849-5.921V115.52a4.5,4.5,0,0,0,2.6.79h54.191a7.383,7.383,0,0,1,7.333,7.415v7.622H538.328a6.758,6.758,0,1,0,0,13.512h11.5a6.742,6.742,0,0,0,1.274-13.392v-7.742a9.239,9.239,0,0,0-6.139-8.7s0-.006,0-.01a9.2,9.2,0,0,0-1.643-5.268.948.948,0,0,0-1.294-.245.9.9,0,0,0-.251,1.262,7.392,7.392,0,0,1,1.291,3.807c-1.241-.158.943-.048-37.8-.082l17.112-19.168a1.053,1.053,0,0,1,1.455-.1l11.167,9.4,3.207,2.6a.949.949,0,0,0,1.312-.116.894.894,0,0,0-.119-1.28l-3.193-2.594-11.151-9.385A2.951,2.951,0,0,0,520.98,94.128Zm33.913,43.978a5,5,0,0,1-5.061,4.934h-11.5a4.939,4.939,0,1,1,0-9.875h11.5A5.006,5.006,0,0,1,554.893,138.106Zm0,0" transform="translate(-483.167 -93.11)"/>
    </g>
    <path id="Path_487" data-name="Path 487" d="M590.78,110.608l-5.388,6.186a2.114,2.114,0,0,0,.205,2.985l2.631,2.292a2.114,2.114,0,0,0,2.986-.205l5.389-6.185a2.115,2.115,0,0,0-.205-2.986l-2.631-2.291A2.119,2.119,0,0,0,590.78,110.608Zm4.458,3.884c-5.651,6.4-5.339,6.272-5.6,6.288a.3.3,0,0,1-.222-.074c-2.6-2.335-2.715-2.246-2.734-2.5a.3.3,0,0,1,.074-.221c5.721-6.5,5.353-6.29,5.618-6.29.217,0,.108.032,2.831,2.367A.306.306,0,0,1,595.238,114.492Zm0,0" transform="translate(-67.898 -11.442)"/>
    <path id="Path_488" data-name="Path 488" d="M684.747,116.177c.46,0,.364-.122,4.191-2.449a.906.906,0,1,0-.958-1.538l-3.713,2.311A.907.907,0,0,0,684.747,116.177Zm0,0" transform="translate(-134.03 -12.913)"/>
    <g id="Group_310" data-name="Group 310" transform="translate(550.829 104.924)" clip-path="url(#clip-path-2)">
      <path id="Path_489" data-name="Path 489" d="M688.755,132.436c.122,0,4.522-.133,4.4-.135a.907.907,0,0,0,.879-.934.9.9,0,0,0-.934-.878l-4.371.135a.906.906,0,0,0,.026,1.812Zm0,0" transform="translate(-687.576 -130.33)"/>
    </g>
    <path id="Path_491" data-name="Path 491" d="M678.228,98.127a.9.9,0,0,0-1.224.38l-2.033,3.872a.906.906,0,0,0,1.6.842l2.033-3.872A.9.9,0,0,0,678.228,98.127Zm0,0" transform="translate(-127.947 -3.404)"/>
    <path id="Path_492" data-name="Path 492" d="M519.672,179.273l-5.724.029a.906.906,0,0,0,0,1.812h.005l5.726-.029a.906.906,0,0,0-.005-1.812Zm0,0" transform="translate(-20.363 -58.362)"/>
    <path id="Path_493" data-name="Path 493" d="M556.955,180.173a.906.906,0,0,0-.907-.9h0l-5.725.029a.906.906,0,0,0,0,1.812h0l5.726-.029A.907.907,0,0,0,556.955,180.173Zm0,0" transform="translate(-44.323 -58.362)"/>
    <path id="Path_494" data-name="Path 494" d="M593.33,180.173a.906.906,0,0,0-.907-.9h0l-5.727.029a.906.906,0,0,0,.005,1.812h0l5.726-.029A.907.907,0,0,0,593.33,180.173Zm0,0" transform="translate(-68.597 -58.362)"/>
    <path id="Path_495" data-name="Path 495" d="M623.074,181.114l5.726-.029a.906.906,0,0,0,0-1.812h0l-5.726.029a.906.906,0,0,0,.005,1.812Zm0,0" transform="translate(-92.869 -58.362)"/>
    <path id="Path_496" data-name="Path 496" d="M551,285.431a.9.9,0,0,0-.905-.9l-4.674.024a.908.908,0,0,0-.9.908l.017,7.809a.906.906,0,0,0,.907.9h0a.906.906,0,0,0,.9-.908l-.015-6.905,3.765-.02A.906.906,0,0,0,551,285.431Zm0,0" transform="translate(-41.062 -129.508)"/>
  </g>
</svg>
