<svg xmlns="http://www.w3.org/2000/svg" width="73.797" height="96.005" viewBox="0 0 73.797 96.005">
  <path id="Path_722" data-name="Path 722" d="M771.344,760.846a1.375,1.375,0,0,0-1.952.377l-.156.234a1.46,1.46,0,0,0,1.157,2.277,1.653,1.653,0,0,0,.951-2.888Zm1.75-13.64a1.491,1.491,0,0,0-.2,2.046c1.4,1.785.17,5.416-1.112,8.144a1.457,1.457,0,0,0,1.263,2.09,1.4,1.4,0,0,0,1.264-.818c2.42-5.15,2.668-8.83.763-11.252A1.372,1.372,0,0,0,773.094,747.205Zm21.573-2.316h-6.654v5.623a1.432,1.432,0,0,1-1.4,1.455H781.23a22.2,22.2,0,0,1-.792,3.622h6.171a1.43,1.43,0,0,1,1.4,1.454v5.622h6.654Zm-16.076,4.271c.054,4.83-1.912,9.047-5.1,14.288-.823,1.352-1.879,2.915-2.771,3-.839.081-2.22-.938-4.1-3.028a1.373,1.373,0,0,0-2.056,0c-1.879,2.09-3.254,3.11-4.1,3.028-.891-.086-1.948-1.649-2.77-3-3.184-5.239-5.15-9.458-5.1-14.288.075-6.819,3.475-7.856,6.026-8.041.164-.012.325-.019.485-.019a6.855,6.855,0,0,1,5.392,2.666,1.373,1.373,0,0,0,2.186,0,6.837,6.837,0,0,1,5.876-2.647C775.117,741.3,778.518,742.342,778.591,749.161Zm-27.836,6.429a21.842,21.842,0,0,1-.793-3.622h-5.377a1.432,1.432,0,0,1-1.406-1.455V744.89h-6.652v17.777h6.652v-5.622a1.431,1.431,0,0,1,1.406-1.454ZM772.879,727.6c-3.123,1.042-4.973,3.41-5.77,7.338a4.069,4.069,0,0,0-.078.754A9.114,9.114,0,0,0,772.879,727.6Zm-39.162,24.009h-3.043a4.266,4.266,0,0,1-4.185-4.332V685.167a4.267,4.267,0,0,1,4.185-4.334h9.574v3.189a1.43,1.43,0,0,0,1.4,1.456h20.331a1.431,1.431,0,0,0,1.406-1.456v-3.189h9.573a4.268,4.268,0,0,1,4.184,4.334v54.364a9.693,9.693,0,0,0-4.383-1.313A9.5,9.5,0,0,0,767,739.677v-.936c5.548-1.543,9.026-6.69,8.721-13.063a1.421,1.421,0,0,0-1.63-1.363c-5.291.9-8.565,4.273-9.732,10.02a6.994,6.994,0,0,0-.135,1.49,1.466,1.466,0,0,0-.034.309v3.543a9.485,9.485,0,0,0-5.76-1.459c-3.879.281-8.521,2.4-8.638,10.84h-3.8v-5.623a1.432,1.432,0,0,0-1.4-1.456h-9.464a1.432,1.432,0,0,0-1.4,1.456Zm9.34-69.038h17.522v-6.3H743.057Zm54.42,60.867v20.686a1.431,1.431,0,0,1-1.406,1.454h-9.462a1.429,1.429,0,0,1-1.406-1.454V758.5h-5.844a53.2,53.2,0,0,1-3.486,6.5c-1.5,2.472-2.908,4.155-4.884,4.348-1.608.159-3.262-.706-5.395-2.851-2.039,2.052-3.719,3.014-5.39,2.851-1.979-.193-3.383-1.876-4.885-4.348a53.636,53.636,0,0,1-3.488-6.5H745.99v5.622a1.431,1.431,0,0,1-1.406,1.454h-9.464a1.431,1.431,0,0,1-1.4-1.454v-9.606h-3.041a7.131,7.131,0,0,1-7-7.242V685.167a7.129,7.129,0,0,1,7-7.242h9.573v-3.11a1.43,1.43,0,0,1,1.406-1.456h20.33a1.432,1.432,0,0,1,1.406,1.456v3.11h9.573a7.128,7.128,0,0,1,6.994,7.242v57.365a13.911,13.911,0,0,1,1.445,6.527h3.8v-5.623a1.431,1.431,0,0,1,1.406-1.456h9.462A1.432,1.432,0,0,1,797.477,743.436Zm-44.872-21.571h16.147a1.455,1.455,0,0,0,0-2.908H752.605a1.455,1.455,0,0,0,0,2.908Zm-15.722,3.5a1.381,1.381,0,0,0,1-.436l6.623-6.995a1.489,1.489,0,0,0-.021-2.056,1.37,1.37,0,0,0-1.985.02l-5.62,5.934-2.225-2.354a1.373,1.373,0,0,0-1.988-.023,1.489,1.489,0,0,0-.021,2.056l3.23,3.418A1.386,1.386,0,0,0,736.883,725.362Zm15.722-15.515h16.147a1.456,1.456,0,0,0,0-2.91H752.605a1.456,1.456,0,0,0,0,2.91Zm-16.725,3.059a1.372,1.372,0,0,0,2.008,0l6.623-6.992a1.491,1.491,0,0,0-.021-2.058,1.37,1.37,0,0,0-1.985.022l-5.62,5.933-2.225-2.354a1.373,1.373,0,0,0-1.988-.024,1.491,1.491,0,0,0-.021,2.059Zm16.725-15.079h16.147a1.455,1.455,0,0,0,0-2.908H752.605a1.455,1.455,0,0,0,0,2.908Zm-19.955-.357,3.23,3.418a1.374,1.374,0,0,0,2.008,0l6.623-6.995a1.491,1.491,0,0,0-.021-2.058,1.37,1.37,0,0,0-1.985.022l-5.62,5.932-2.225-2.354a1.375,1.375,0,0,0-1.988-.024A1.491,1.491,0,0,0,732.651,697.471Zm0,0" transform="translate(-723.68 -673.359)" fill-rule="evenodd"/>
</svg>
